<svg class="icon-fotovoltaica" xmlns="http://www.w3.org/2000/svg" viewBox="0 0 24 24" fill="currentColor">
    <path d="M12 9c.83 0 1.5.67 1.5 1.5S12.83 12 12 12s-1.5-.67-1.5-1.5S11.17 9 12 9m0-2c-1.93 0-3.5 1.57-3.5 3.5S10.07 14 12 14s3.5-1.57 3.5-3.5S13.93 7 12 7zM4.22 4.22l1.41 1.41C4.59 6.67 4 8.26 4 10c0 .87.16 1.7.45 2.47L2.2 14.72C1.46 13.28 1 11.68 1 10c0-2.5.8-4.78 2.18-6.59L4.22 4.22zm15.56 0l1.06 1.06C19.9 3.41 18.59 3 17.17 3c-1.68 0-3.28.46-4.72 1.2L14.7 2.2l2.47-.45C17.3 1.16 18.13 1 19 1c1.68 0 3.28.46 4.72 1.2l-1.06 1.06zm1.41 1.41l-1.41 1.41c.96 1.01 1.54 2.34 1.54 3.76 0 1.68-.46 3.28-1.2 4.72l1.06 1.06C22.59 17.33 23 15.74 23 14c0-1.42-.38-2.75-1.06-3.94l1.06-1.06zM10 4c.87 0 1.7.16 2.47.45l2.25-2.25C13.28 1.46 11.68 1 10 1c-1.42 0-2.75.38-3.94 1.06L7.53 3.55C8.3 3.16 9.13 3 10 3zm0 16c-.87 0-1.7-.16-2.47-.45L5.28 21.8C6.72 22.54 8.32 23 10 23c1.42 0 2.75-.38 3.94-1.06l-1.47-1.47c-.77.29-1.6.45-2.47.45zm4-1.5c0 .83-.67 1.5-1.5 1.5s-1.5-.67-1.5-1.5.67-1.5 1.5-1.5 1.5.67 1.5 1.5z"/>
    <path d="M4 18h16v-2H4v2zm-2-4h20v-2H2v2z"/> </svg>



      