<svg class="icon-desarrollo-web" xmlns="http://www.w3.org/2000/svg" viewBox="0 0 24 24" fill="currentColor">
    <path d="M20 4H4c-1.1 0-2 .9-2 2v12c0 1.1.9 2 2 2h16c1.1 0 2-.9 2-2V6c0-1.1-.9-2-2-2zm-1 14H5c-.55 0-1-.45-1-1V7c0-.55.45-1 1-1h14c.55 0 1 .45 1 1v10c0 .55-.45 1-1 1z"/> <path d="M10.29 15.71l-3.59-3.59a.996.996 0 010-1.41l3.59-3.59a.996.996 0 111.41 1.41L8.41 12l3.29 3.29a.996.996 0 010 1.41c-.38.39-1.02.39-1.41.01zM13.71 15.71a.996.996 0 010-1.41L16.59 12l-2.88-2.88a.996.996 0 111.41-1.41l3.59 3.59a.996.996 0 010 1.41l-3.59 3.59a1.003 1.003 0 01-1.41 0z"/> </svg>